<svg xmlns="http://www.w3.org/2000/svg" version="1.1" xmlns:xlink="http://www.w3.org/1999/xlink" xmlns:svgjs="http://svgjs.dev/svgjs" width="1000" height="999" viewBox="0 0 1000 999"><g transform="matrix(1,0,0,1,-0.215743440233382,-0.21552769679306039)"><svg viewBox="0 0 343 343" data-background-color="#ffffff" preserveAspectRatio="xMidYMid meet" height="999" width="1000" xmlns="http://www.w3.org/2000/svg" xmlns:xlink="http://www.w3.org/1999/xlink"><g id="tight-bounds" transform="matrix(1,0,0,1,0.0740000000000407,0.07400000000001228)"><svg viewBox="0 0 342.85155851775386 342.85155851775386" height="342.85155851775386" width="342.85155851775386"><g><svg></svg></g><g><svg viewBox="0 0 342.85155851775386 342.85155851775386" height="342.85155851775386" width="342.85155851775386"><g><path d="M0 171.426c0-94.676 76.75-171.426 171.426-171.426 94.676 0 171.426 76.75 171.426 171.426 0 94.676-76.75 171.426-171.426 171.426-94.676 0-171.426-76.75-171.426-171.426zM171.426 336.671c91.263 0 165.245-73.983 165.245-165.245 0-91.263-73.983-165.245-165.245-165.246-91.263 0-165.245 73.983-165.246 165.246 0 91.263 73.983 165.245 165.246 165.245z" data-fill-palette-color="tertiary" fill="#000000" stroke="transparent"></path><ellipse rx="164.56874808852186" ry="164.56874808852186" cx="171.42577925887693" cy="171.42577925887693" fill="#000000" stroke="transparent" stroke-width="0" fill-opacity="1" data-fill-palette-color="tertiary"></ellipse></g><g transform="matrix(1,0,0,1,64.84655864529837,137.1596266053869)"><svg viewBox="0 0 213.1584412271571 68.53230530698002" height="68.53230530698002" width="213.1584412271571"><g><svg viewBox="0 0 213.1584412271571 68.53230530698002" height="68.53230530698002" width="213.1584412271571"><g><svg viewBox="0 0 213.1584412271571 68.53230530698002" height="68.53230530698002" width="213.1584412271571"><g id="textblocktransform"><svg viewBox="0 0 213.1584412271571 68.53230530698002" height="68.53230530698002" width="213.1584412271571" id="textblock"><g><svg viewBox="0 0 213.1584412271571 68.53230530698002" height="68.53230530698002" width="213.1584412271571"><g transform="matrix(1,0,0,1,0,0)"><svg width="213.1584412271571" viewBox="0 -35.79999923706055 111.33999633789062 35.79999923706055" height="68.53230530698002" data-palette-color="#ffffff"><path d="M32.8-2.15L37.65-2.15 37.65 0 26.85 0 18.5-11.75 10.75-11.75 10.75 0 0 0 0-2.15 4.85-2.15 4.85-34.95 17.85-34.95Q25.85-34.95 29.3-32.25 32.75-29.55 32.75-23.6L32.75-23.6Q32.75-14.95 25.2-12.7L25.2-12.7 32.8-2.15ZM18.1-17.1Q23.1-17.1 24.9-18.65 26.7-20.2 26.7-23.63 26.7-27.05 24.85-28.33 23-29.6 18.25-29.6L18.25-29.6 10.75-29.6 10.75-17.1 18.1-17.1ZM72.55-2.15L78.35-2.15 78.35 0 67.2 0 63.7-7.95 46.2-7.95 42.7 0 31.55 0 31.55-2.15 37.35-2.15 51.8-34.95 58.1-34.95 72.55-2.15ZM48.6-13.4L61.3-13.4 54.95-27.8 48.6-13.4ZM103.95-2.15L111.34-2.15 111.34 0 73.5 0 73.5-2.15 85.59-2.15Q81.25-4.35 78.67-8.6 76.09-12.85 76.09-18.2L76.09-18.2Q76.09-25.85 81.4-30.83 86.7-35.8 94.27-35.8 101.84-35.8 106.84-31.4L106.84-31.4 103.7-26.9Q101.65-28.65 99.57-29.33 97.5-30 94.75-30L94.75-30Q89.4-30 85.82-26.8 82.25-23.6 82.25-18.05 82.25-12.5 85.75-9.13 89.25-5.75 94.22-5.75 99.2-5.75 102.55-7.9L102.55-7.9 102.55-17.5 108.45-17.5 108.45-5.55Q106.59-3.5 103.95-2.15L103.95-2.15Z" opacity="1" transform="matrix(1,0,0,1,0,0)" fill="#ffffff" class="undefined-text-0" data-fill-palette-color="quaternary" id="text-0"></path></svg></g></svg></g></svg></g></svg></g><g></g></svg></g></svg></g></svg></g><defs></defs></svg><rect width="342.85155851775386" height="342.85155851775386" fill="none" stroke="none" visibility="hidden"></rect></g></svg></g></svg>